<svg version="1.1" id="Uploaded to svgrepo.com" xmlns="http://www.w3.org/2000/svg" xmlns:xlink="http://www.w3.org/1999/xlink" x="0px" y="0px"
	 width="32px" height="32px" viewBox="0 0 32 32" style="enable-background:new 0 0 32 32;" xml:space="preserve" fill="#fff">
<path class="puchipuchi_een" d="M7.293,16.302l-1.155,1.13c0,0-0.138,0.134-0.138,0.577v3c0,1.104-0.896,2-2,2s-2-0.896-2-2v-4
	c0-2.01,1.332-5,5-5l4.585,0.001L7.293,16.302z M17,17.29c0.553,0,1-0.447,1-1V7c0-2.823,2.504-2.994,2.994-3
	C21.496,4.006,24,4.177,24,7v4.528l2,2V7c0-3.955-3.271-5-5-5s-5,1.045-5,5v9.29C16,16.843,16.447,17.29,17,17.29z M29.586,18.494
	L19,8v8.29c0,1.103-0.897,2-2,2c-1.103,0-2-0.897-2-2v-6.281l-8,8l11.586,11.485c0.778,0.778,2.051,0.778,2.828,0l8.172-8.172
	C30.364,20.545,30.364,19.272,29.586,18.494z M4,24.977c-1.105,0-2,0.895-2,2c0,1.105,0.895,2,2,2s2-0.895,2-2
	C6,25.873,5.105,24.977,4,24.977z"/>
</svg>
